<svg width="109" height="107" viewBox="0 0 109 107" fill="none" xmlns="http://www.w3.org/2000/svg">
<path fill-rule="evenodd" clip-rule="evenodd" d="M17.5035 103.956C30.8452 110.239 49.2446 105.941 64.8938 98.8232C79.4905 92.1838 96.084 81.0749 104.529 67.0093C109.89 58.088 108.692 48.4939 104.478 40.0565H88.3273C78.3397 40.0565 73.3371 45.0572 73.3371 55.0605V78.6199H66.9181V55.0605C66.9181 40.7746 74.0551 33.6375 88.3273 33.6375H100.567C99.446 32.0853 98.2401 30.6001 96.9791 29.1974C93.2532 25.0525 87.6269 21.1339 82.7778 17.4178C78.0977 13.8315 73.0204 11.0125 66.2767 7.86301C54.6525 2.43153 36.196 -2.52588 22.8917 1.42429C15.0681 3.74561 11.9599 7.48136 8.354 13.084C7.59859 13.084 3.10351 22.328 1.51596 32.2526C-1.35618 50.231 -2.08602 94.7294 17.5035 103.956ZM57.2649 36.8539C54.4144 36.8539 52.9803 35.4198 52.9803 32.5693C52.9803 29.7031 54.4144 28.2827 57.2649 28.2827C60.1331 28.2827 61.5515 29.7031 61.5515 32.5693C61.5515 35.4198 60.1331 36.8539 57.2649 36.8539ZM54.0623 78.6199V51.2932L47.6275 52.7982V63.6297C47.6275 73.6193 42.6269 78.6199 32.6236 78.6199H17.6353C7.63204 78.6199 2.64514 74.3353 2.64514 65.7641C2.64514 59.5359 4.80909 55.9674 9.15271 55.0605L14.7022 53.7975L41.1475 47.7424C40.8878 42.6198 38.0374 40.0565 32.6236 40.0565H17.6353C11.9166 40.0565 9.06417 42.9208 9.06417 48.6257H2.64514C2.64514 38.6382 7.63204 33.6356 17.6353 33.6356H32.6236C41.8124 33.6356 46.7777 37.8551 47.5272 46.2827L60.4833 43.3182V78.6199H54.0623ZM32.6236 72.1852C38.3423 72.1852 41.1928 69.3347 41.1928 63.6297V54.4172L10.8209 61.393C9.65041 61.8021 9.06417 62.534 9.06417 63.6297C9.06417 69.3347 11.9166 72.1852 17.6353 72.1852H32.6236Z" fill="url(#paint0_linear_2177_3441)"/>
<defs>
<linearGradient id="paint0_linear_2177_3441" x1="102.839" y1="152.562" x2="49.2236" y2="17.5834" gradientUnits="userSpaceOnUse">
<stop stop-color="#8E04B7"/>
<stop offset="1" stop-color="#E13C52"/>
</linearGradient>
</defs>
</svg>
